# xmcd
# Track frame offsets:
# 150
# 12127
# 22951
# 40688
# 53929
# 71043
# 82375
# 99192
# 121040
# 136624
# 148925
# 163672
# 179122
# 192555
# 204686
# 217932
# 228637
# 240563
# 251593
# 260326
# 272238
# 286020
#
# Disc length: 3965 seconds
# Revision: 0
# Processed by: cddbd v1.4PL0 Copyright (c) Steve Scherf et al.
# Submitted via: VisiTrax 2.9.5.181 - For more info visit www.synapsa.com
#
DISCID=420f7b16
DTITLE=Various Artist - Shades Of Blue
DYEAR=1900
DGENRE=
TTITLE0=Lightin Hopkins - Lonesome Dog
TTITLE1=Billie Holiday - I got it bad and that aint good
TTITLE2=John Mayall - Mama talk to your daughter
TTITLE3=Elmore James - Dust my broom
TTITLE4=Charles Brown - Driftin blues
TTITLE5=Elmore James - Look on yonder wall
TTITLE6=Gatemouth Moore - Goin down slow
TTITLE7=John Mayall - Baby what do you want me to do
TTITLE8=Eddie "Cleanhead" Vinson - I'm the midnight creeper
TTITLE9=John Lee Hooker - Crawlin black spider
TTITLE10=Charles Brown - Baby let me hold your hand
TTITLE11=Dinah Washington - Trouble trouble
TTITLE12=Eddie "Cleanhead" Vinson - Cherry red
TTITLE13=Elmore James - Mean mistreating mama
TTITLE14=Dinah Washington - Chewin mama blues
TTITLE15=Billie Holiday - Nobodys business
TTITLE16=Lightnin Hopkins - Have you ever loved a woman
TTITLE17=B B King - Catfish blues
TTITLE18=Billie holiday - Please don't talk about me when I'm gone
TTITLE19=John Lee Hooker - Crawlin king snake
TTITLE20=Eddie "Cleanhead" Vinson - Sugar
TTITLE21=Elmore James - Rollin and tumblin
EXTD=
EXTT0=
EXTT1=
EXTT2=
EXTT3=
EXTT4=
EXTT5=
EXTT6=
EXTT7=
EXTT8=
EXTT9=
EXTT10=
EXTT11=
EXTT12=
EXTT13=
EXTT14=
EXTT15=
EXTT16=
EXTT17=
EXTT18=
EXTT19=
EXTT20=
EXTT21=
PLAYORDER=
